<?xml version="1.0" encoding="utf-8"?>
<!-- Generator: Adobe Illustrator 25.2.1, SVG Export Plug-In . SVG Version: 6.00 Build 0)  -->
<svg version="1.1" id="Layer_1" xmlns="http://www.w3.org/2000/svg" xmlns:xlink="http://www.w3.org/1999/xlink" x="0px" y="0px"
	 viewBox="0 0 235.6 221.3" style="enable-background:new 0 0 235.6 221.3;" xml:space="preserve">
<style type="text/css">
	.st0{fill:#3E4347;}
	.st1{fill:#FFFEFE;}
	.st2{fill:#3F3D56;}
	.st3{fill:#A696DF;}
	.st4{fill:#8ACCC1;}
	.st5{fill:#4E148C;}
	.st6{fill:#CCCCCC;}
</style>
<path class="st0" d="M61.5,221c5,0,9.1-1.5,9.1-3.4c0-1.9-4.1-3.4-9.1-3.4c-5,0-9.1,1.5-9.1,3.4C52.4,219.4,56.4,221,61.5,221z"/>
<path class="st0" d="M83.3,220.5c5,0,9.1-1.5,9.1-3.4c0-1.9-4.1-3.4-9.1-3.4c-5,0-9.1,1.5-9.1,3.4C74.2,219,78.2,220.5,83.3,220.5z"
	/>
<path class="st0" d="M112.2,163c8.6-5,14.3-11.2,12.7-13.9c-1.6-2.7-9.8-0.9-18.4,4.1c-8.6,5-14.3,11.2-12.7,13.9
	C95.4,169.8,103.6,168,112.2,163z"/>
<path class="st0" d="M104.2,175.2c3.2-19.6-10.1-38.1-29.7-41.3c-19.6-3.2-38,10.1-41.2,29.8S43.4,201.8,63,205
	C82.5,208.2,101,194.9,104.2,175.2z"/>
<path class="st0" d="M63.3,197.7H52.4v19.6h10.9V197.7z"/>
<path class="st0" d="M85.1,197.7H74.2v19.6h10.9V197.7z"/>
<path class="st1" d="M69.6,172.6c6.8,0,12.3-5.5,12.3-12.3c0-6.8-5.5-12.3-12.3-12.3c-6.8,0-12.3,5.5-12.3,12.3
	C57.4,167.1,62.9,172.6,69.6,172.6z"/>
<path class="st2" d="M69.6,164.4c2.3,0,4.1-1.8,4.1-4.1c0-2.3-1.8-4.1-4.1-4.1c-2.3,0-4.1,1.8-4.1,4.1
	C65.5,162.6,67.4,164.4,69.6,164.4z"/>
<path class="st3" d="M33.9,136c-2.9-13,6.4-26.2,20.7-29.4c14.3-3.2,28.3,4.7,31.2,17.8c2.9,13-6.6,17.8-20.9,21
	C50.5,148.6,36.8,149,33.9,136z"/>
<path class="st0" d="M44.5,160.5c1.3-2.8-4.8-8.6-13.8-12.8c-9-4.3-17.3-5.4-18.6-2.6s4.8,8.6,13.8,12.8
	C34.8,162.1,43.2,163.3,44.5,160.5z"/>
<path class="st1" d="M51.1,182.4c0,3.5,9,10.5,19.1,10.5s19.5-9.9,19.5-13.4c0-3.5-9.4,0.7-19.5,0.7
	C60.1,180.2,51.1,178.9,51.1,182.4z"/>
<path class="st0" d="M193.9,221c5,0,9.1-1.5,9.1-3.4c0-1.9-4.1-3.4-9.1-3.4c-5,0-9.1,1.5-9.1,3.4C184.8,219.4,188.9,221,193.9,221z"
	/>
<path class="st0" d="M172.1,220.5c5,0,9.1-1.5,9.1-3.4c0-1.9-4.1-3.4-9.1-3.4c-5,0-9.1,1.5-9.1,3.4C163,219,167.1,220.5,172.1,220.5
	z"/>
<path class="st0" d="M161.5,167.1c1.6-2.7-4.1-8.9-12.7-13.9c-8.6-5-16.8-6.8-18.4-4.1c-1.6,2.7,4.1,8.9,12.7,13.9
	C151.7,168,160,169.8,161.5,167.1z"/>
<path class="st0" d="M186.6,205.5c19.8,0,35.9-16.1,35.9-36s-16.1-36-35.9-36c-19.8,0-35.9,16.1-35.9,36S166.8,205.5,186.6,205.5z"
	/>
<path class="st0" d="M203,197.7h-10.9v19.6H203V197.7z"/>
<path class="st0" d="M181.2,197.7h-10.9v19.6h10.9V197.7z"/>
<path class="st1" d="M178.2,172.6c6.8,0,12.3-5.5,12.3-12.3c0-6.8-5.5-12.3-12.3-12.3c-6.8,0-12.3,5.5-12.3,12.3
	C166,167.1,171.5,172.6,178.2,172.6z"/>
<path class="st2" d="M175.3,161.6c1.6-1.6,1.6-4.2,0-5.8c-1.6-1.6-4.2-1.6-5.8,0c-1.6,1.6-1.6,4.2,0,5.8
	C171.1,163.2,173.7,163.2,175.3,161.6z"/>
<path class="st4" d="M190.5,145.4c-14.3-3.2-23.8-8-20.9-21c2.9-13,16.9-21,31.2-17.8c14.3,3.2,23.6,16.4,20.7,29.4
	C218.6,149,204.8,148.6,190.5,145.4z"/>
<path class="st0" d="M224.2,196.9c3-0.8,3.4-9.2,0.8-18.9c-2.5-9.6-7-16.8-10.1-16c-3,0.8-3.4,9.2-0.8,18.9
	C216.7,190.6,221.2,197.7,224.2,196.9z"/>
<path class="st1" d="M178.5,180.2c-6.6,0-12.8-4.2-12.8-0.7c0,3.5,6.2,13.4,12.8,13.4c6.6,0,12.5-7,12.5-10.5
	C191,178.9,185.1,180.2,178.5,180.2z"/>
<path class="st5" d="M132.1,109.7h-3.2c-2.9,0-5.6-1.1-7.6-3.2c-2-2-3.2-4.8-3.2-7.6v-2.7c0-6.7,1.3-12.2,3.7-16.6
	c3-5,6.5-9.8,10.5-14.1c2.6-2.6,5-5.5,7.1-8.6c1.5-2.4,2.3-5.2,2.2-8c0-6.7-4.3-9.9-13.2-9.9c-4.9,0.1-9.9,0.8-14.6,2.2
	c-1.8,0.5-3.8,0.6-5.6,0.3c-1.9-0.3-3.6-1.1-5.2-2.3c-1.5-1.1-2.8-2.6-3.6-4.3c-0.8-1.7-1.3-3.6-1.3-5.5V24c0-2.3,0.7-4.6,1.9-6.6
	c1.3-2,3.1-3.5,5.2-4.5c8.4-3.6,17.4-5.4,26.5-5.2c9.5,0,18.2,1.6,25.6,4.8c7.5,3.2,13.4,7.7,17.5,13.3c4.2,5.6,6.4,12.4,6.3,19.4
	c0,7.5-2,14.1-6.1,19.4c-4,5.3-9.7,11.2-17,17.4c-3.8,3.2-7.5,6.6-10.9,10.3c-2.2,2.4-3.8,5.3-4.5,8.5c-0.4,2.5-1.7,4.8-3.7,6.4
	C137.1,108.8,134.7,109.7,132.1,109.7L132.1,109.7z"/>
<path class="st5" d="M130.3,160.6h-0.4c-5.3,0-10.4-2.1-14.1-5.9c-3.7-3.8-5.8-8.8-5.8-14.2c0-5.3,2.1-10.4,5.8-14.2
	c3.7-3.8,8.8-5.9,14.1-5.9h0.4c2.6,0,5.2,0.5,7.6,1.5c2.4,1,4.6,2.5,6.5,4.3c1.9,1.9,3.3,4.1,4.3,6.5s1.5,5,1.5,7.7
	c0,2.6-0.5,5.2-1.5,7.7s-2.5,4.6-4.3,6.5c-1.9,1.9-4.1,3.3-6.5,4.3C135.6,160,133,160.6,130.3,160.6z"/>
<path class="st6" d="M260.9,220.5c0,0.2-0.1,0.4-0.2,0.6c-0.2,0.2-0.4,0.2-0.6,0.2H0.8c-0.2,0-0.4-0.1-0.6-0.2
	c-0.1-0.2-0.2-0.4-0.2-0.6c0-0.2,0.1-0.4,0.2-0.6c0.2-0.1,0.4-0.2,0.6-0.2h259.3c0.2,0,0.4,0.1,0.6,0.2
	C260.8,220.1,260.9,220.3,260.9,220.5z"/>
</svg>
